<mxfile host="app.diagrams.net" modified="2023-10-20T11:52:59.607Z" agent="Mozilla/5.0 (Windows NT 10.0; Win64; x64) AppleWebKit/537.36 (KHTML, like Gecko) Chrome/118.0.0.0 Safari/537.36" version="22.0.5" etag="zH6LREAQZ-hKhJ84YqOV" type="github">
  <diagram name="Page-1" id="7kHLog3f486lLnwi_ZqI">
    <mxGraphModel>
      <root>
        <mxCell id="0" />
        <mxCell id="1" parent="0" />
      </root>
    </mxGraphModel>
  </diagram>
</mxfile>
